<svg width="38" height="36" viewBox="0 0 38 36" fill="none" xmlns="http://www.w3.org/2000/svg">
<g id="account_circle">
<path id="icon" d="M9.26234 25.65C10.6082 24.675 12.1123 23.9062 13.7748 23.3438C15.4373 22.7812 17.179 22.5 18.9998 22.5C20.8207 22.5 22.5623 22.7812 24.2248 23.3438C25.8873 23.9062 27.3915 24.675 28.7373 25.65C29.6609 24.625 30.38 23.4625 30.8946 22.1625C31.4092 20.8625 31.6665 19.475 31.6665 18C31.6665 14.675 30.4328 11.8438 27.9655 9.50625C25.4981 7.16875 22.5096 6 18.9998 6C15.4901 6 12.5016 7.16875 10.0342 9.50625C7.56685 11.8438 6.33317 14.675 6.33317 18C6.33317 19.475 6.59046 20.8625 7.10505 22.1625C7.61963 23.4625 8.33873 24.625 9.26234 25.65ZM18.9998 19.5C17.4429 19.5 16.13 18.9938 15.0613 17.9813C13.9925 16.9688 13.4582 15.725 13.4582 14.25C13.4582 12.775 13.9925 11.5312 15.0613 10.5188C16.13 9.50625 17.4429 9 18.9998 9C20.5568 9 21.8696 9.50625 22.9384 10.5188C24.0071 11.5312 24.5415 12.775 24.5415 14.25C24.5415 15.725 24.0071 16.9688 22.9384 17.9813C21.8696 18.9938 20.5568 19.5 18.9998 19.5ZM18.9998 33C16.8096 33 14.7512 32.6062 12.8248 31.8187C10.8984 31.0312 9.22275 29.9625 7.79775 28.6125C6.37275 27.2625 5.24463 25.675 4.41338 23.85C3.58213 22.025 3.1665 20.075 3.1665 18C3.1665 15.925 3.58213 13.975 4.41338 12.15C5.24463 10.325 6.37275 8.7375 7.79775 7.3875C9.22275 6.0375 10.8984 4.96875 12.8248 4.18125C14.7512 3.39375 16.8096 3 18.9998 3C21.1901 3 23.2484 3.39375 25.1748 4.18125C27.1012 4.96875 28.7769 6.0375 30.2019 7.3875C31.6269 8.7375 32.755 10.325 33.5863 12.15C34.4175 13.975 34.8332 15.925 34.8332 18C34.8332 20.075 34.4175 22.025 33.5863 23.85C32.755 25.675 31.6269 27.2625 30.2019 28.6125C28.7769 29.9625 27.1012 31.0312 25.1748 31.8187C23.2484 32.6062 21.1901 33 18.9998 33Z" fill="#1D1B20"/>
</g>
</svg>
